<svg width="22" height="22" viewBox="0 0 22 22" fill="none" xmlns="http://www.w3.org/2000/svg">
<g id="add_10336265 1" clip-path="url(#clip0_2044_145)">
<g id="Layer_2_00000121244977191373800340000000814395740421153163_">
<g id="plus">
<path id="Vector" d="M20.0707 9.50039H12.4996V1.9293C12.4996 1.1 11.8293 0.429688 11 0.429688C10.1707 0.429688 9.50039 1.1 9.50039 1.9293V9.50469H1.9293C1.1 9.50039 0.429688 10.1707 0.429688 11C0.429688 11.8293 1.1 12.4996 1.9293 12.4996H9.50469V20.075C9.50469 20.9043 10.175 21.5746 11.0043 21.5746C11.8336 21.5746 12.5039 20.9043 12.5039 20.075V12.4996H20.0793C20.9086 12.4996 21.5789 11.8293 21.5789 11C21.5703 10.1707 20.9 9.50039 20.0707 9.50039Z" fill="white"/>
</g>
</g>
</g>
<defs>
<clipPath id="clip0_2044_145">
<rect width="22" height="22" fill="white"/>
</clipPath>
</defs>
</svg>
