<svg width="21" height="23" viewBox="0 0 21 23" fill="none" xmlns="http://www.w3.org/2000/svg">
<g id="&#208;&#184;&#208;&#186;&#208;&#190;&#208;&#189;&#208;&#186;&#208;&#176;">
<path id="Vector" d="M1.30657 5.05865L4.08705 2.08768C4.41501 1.74071 4.96398 1.74071 5.29193 2.08768L6.18311 3.04909C6.29719 3.17198 6.49681 3.12861 6.54672 2.96958L6.97448 1.69734C7.03865 1.54554 7.18124 1.44434 7.33809 1.44434H16.3925C17.2266 1.44434 18.0038 1.87805 18.4529 2.59369L19.5081 4.29242C19.8289 4.81288 20 5.41286 20 6.02729V19.1184C20 20.4773 18.9092 21.5833 17.5689 21.5833H3.43114C2.09081 21.5833 1 20.4773 1 19.1184V9.55487C1 9.29464 1.09268 9.04886 1.26379 8.85369L2.04803 7.95011C2.31895 7.63928 2.29756 7.16219 1.99812 6.87304L1.34221 6.25138C1.00713 5.93332 0.992871 5.3984 1.30657 5.05865Z" stroke="#FF8743" stroke-width="1.5" stroke-miterlimit="10"/>
<path id="Vector_2" d="M8.5498 6.95959H16.8414V6.20782C16.8414 5.26086 16.0856 4.49463 15.1517 4.49463H10.2395C9.30553 4.49463 8.5498 5.26086 8.5498 6.20782V6.95959Z" stroke="#FF8743" stroke-width="1.5" stroke-miterlimit="10"/>
</g>
</svg>
