<svg width="13" height="16" viewBox="0 0 13 16" fill="none" xmlns="http://www.w3.org/2000/svg">
<g id="Group 3335980">
<path id="Vector" d="M12.4091 6.70456C12.4091 11.1414 6.70456 14.9445 6.70456 14.9445C6.70456 14.9445 1 11.1414 1 6.70456C1 5.19161 1.60101 3.74064 2.67083 2.67083C3.74064 1.60101 5.19161 1 6.70456 1C8.2175 1 9.66848 1.60101 10.7383 2.67083C11.8081 3.74064 12.4091 5.19161 12.4091 6.70456Z" stroke="#FF8743" stroke-linecap="round" stroke-linejoin="round"/>
<path id="Vector_2" d="M6.7045 8.60626C7.75468 8.60626 8.60602 7.75492 8.60602 6.70474C8.60602 5.65456 7.75468 4.80322 6.7045 4.80322C5.65432 4.80322 4.80298 5.65456 4.80298 6.70474C4.80298 7.75492 5.65432 8.60626 6.7045 8.60626Z" stroke="#FF8743" stroke-linecap="round" stroke-linejoin="round"/>
</g>
</svg>
