<svg width="25" height="25" viewBox="0 0 25 25" fill="none" xmlns="http://www.w3.org/2000/svg">
<g id="right-arrow_4103158 1" clip-path="url(#clip0_2036_480)">
<ellipse id="Ellipse 1" cx="13" cy="12.5" rx="9" ry="8.5" fill="white"/>
<path id="Vector" d="M12.5 0C5.60747 0 0 5.60747 0 12.5C0 19.3925 5.60747 25 12.5 25C19.3925 25 25 19.3925 25 12.5C25 5.60747 19.3925 0 12.5 0ZM19.7021 13.0524L15.7404 17.0143C15.668 17.0875 15.5818 17.1458 15.4869 17.1856C15.3919 17.2255 15.29 17.2461 15.187 17.2464C15.084 17.2468 14.9819 17.2267 14.8867 17.1874C14.7915 17.1482 14.705 17.0905 14.6322 17.0176C14.5594 16.9448 14.5016 16.8583 14.4624 16.7631C14.4231 16.6679 14.4031 16.5658 14.4034 16.4628C14.4037 16.3598 14.4244 16.2579 14.4642 16.1629C14.504 16.068 14.5623 15.9818 14.6355 15.9094L17.2635 13.2812H5.85044C5.64324 13.2812 5.44452 13.1989 5.29801 13.0524C5.1515 12.9059 5.06919 12.7072 5.06919 12.5C5.06919 12.2928 5.1515 12.0941 5.29801 11.9476C5.44452 11.8011 5.64324 11.7188 5.85044 11.7188H17.2635L14.6354 9.09062C14.4903 8.94381 14.4092 8.74557 14.4099 8.53919C14.4105 8.33281 14.4928 8.13507 14.6387 7.98913C14.7846 7.8432 14.9824 7.76094 15.1888 7.76032C15.3951 7.75969 15.5934 7.84075 15.7402 7.98579L19.7021 11.9476C19.8486 12.0941 19.9309 12.2928 19.9309 12.5C19.9309 12.7072 19.8486 12.9059 19.7021 13.0524Z" fill="url(#paint0_linear_2036_480)"/>
</g>
<defs>
<linearGradient id="paint0_linear_2036_480" x1="3.6653" y1="21.3347" x2="21.3347" y2="3.66543" gradientUnits="userSpaceOnUse">
<stop stop-color="#D75F1B"/>
<stop offset="1" stop-color="#FFA561"/>
</linearGradient>
<clipPath id="clip0_2036_480">
<rect width="25" height="25" fill="white"/>
</clipPath>
</defs>
</svg>
