<svg width="15" height="19" viewBox="0 0 15 19" fill="none" xmlns="http://www.w3.org/2000/svg">
<g id="Group 3335976">
<path id="Vector" d="M14 7.98355C14 13.4152 7.5 18.0709 7.5 18.0709C7.5 18.0709 1 13.4152 1 7.98355C1 6.1314 1.68482 4.3551 2.90381 3.04543C4.12279 1.73576 5.77609 1 7.5 1C9.22391 1 10.8772 1.73576 12.0962 3.04543C13.3152 4.3551 14 6.1314 14 7.98355Z" stroke="#FF8743" stroke-linecap="round" stroke-linejoin="round"/>
<path id="Vector_2" d="M7.50016 10.3113C8.69678 10.3113 9.66683 9.26913 9.66683 7.98349C9.66683 6.69785 8.69678 5.65564 7.50016 5.65564C6.30355 5.65564 5.3335 6.69785 5.3335 7.98349C5.3335 9.26913 6.30355 10.3113 7.50016 10.3113Z" stroke="#FF8743" stroke-linecap="round" stroke-linejoin="round"/>
</g>
</svg>
