<svg width="117" height="24" viewBox="0 0 117 24" fill="none" xmlns="http://www.w3.org/2000/svg">
<path id="Vector" fill-rule="evenodd" clip-rule="evenodd" d="M25.5284 0.0408859C31.5652 -0.161027 37.6562 0.368995 43.5107 1.9866C46.4075 2.82178 49.274 3.91624 51.8259 5.61415C53.4599 6.74073 55.0439 8.15871 55.7925 10.1182C56.4153 11.6899 56.1679 13.5461 55.2913 14.9549C54.0479 17.02 52.0407 18.4012 50.0183 19.5003C45.1794 22.0265 39.8023 23.1255 34.4707 23.7221C28.2842 24.2338 22.0153 24.0938 15.9112 22.8387C12.1768 22.0586 8.45966 20.9205 5.12663 18.9335C3.39719 17.8781 1.722 16.5496 0.693447 14.7002C-0.0855609 13.3259 -0.224437 11.566 0.359277 10.0861C0.93865 8.54419 2.08221 7.33271 3.31473 6.34838C5.47382 4.65506 7.97793 3.52848 10.5189 2.64281C15.3666 0.990796 20.4551 0.300161 25.5284 0.0408859ZM17.3239 2.40189C13.6501 3.20496 9.94824 4.36137 6.81701 6.61454C5.19607 7.79848 3.66192 9.48492 3.44059 11.6509C3.29737 13.5622 4.3997 15.2945 5.71035 16.4991C7.86726 18.4884 10.5732 19.6379 13.2639 20.5649C13.4852 20.0693 13.7087 19.5737 13.9409 19.0827C15.8331 19.2456 17.7123 19.5989 19.6153 19.6334C22.0109 19.6701 24.4174 19.7068 26.8 19.3924C28.6357 19.1745 30.5496 19.0138 32.214 18.0892C33.0299 17.6463 33.6309 16.7607 33.6765 15.7809C33.7698 15.0352 33.4422 14.2391 33.7134 13.5301C34.3752 12.9014 35.1434 12.3897 35.905 11.9056C37.4913 11.8758 39.084 12.0478 40.6702 12.1603C40.5292 12.6582 40.4728 13.2111 40.182 13.6402C39.3249 13.9637 38.3571 13.9064 37.552 14.3882C38.5849 15.2945 39.6894 16.3431 39.9151 17.8207C40.2059 19.1722 39.633 20.5144 38.8171 21.5286C41.7856 20.9802 44.6933 19.9706 47.3753 18.5114C48.9203 17.6349 50.4067 16.5427 51.4548 15.0306C52.4465 13.553 52.7872 11.4972 51.9756 9.84286C50.8624 7.41072 48.5883 5.86425 46.349 4.74225C43.5324 3.35639 40.4945 2.55103 37.4392 2.0256C37.6388 2.92274 37.8102 3.83823 37.756 4.7652C37.7386 6.32314 37.0421 7.76407 36.2002 9.00308C33.8479 12.3232 30.3956 14.7874 26.5721 15.7465C22.8095 16.7354 18.8927 16.9052 15.0367 16.6345C15.1865 15.8291 15.5879 15.1201 15.8787 14.3698C17.632 10.1824 19.3896 5.99503 21.1495 1.80992C19.8583 1.86499 18.5954 2.18163 17.3239 2.40189ZM17.977 14.324C19.6739 13.9477 21.1213 12.8119 22.3104 11.5224C23.6709 9.99429 24.8232 8.25967 25.7367 6.39886C26.2228 5.35946 26.6828 4.13192 26.3009 2.98239C25.7237 1.81451 24.2785 1.95677 23.2239 1.92006C21.4142 6.02486 19.7607 10.2054 17.977 14.324ZM62.4629 5.51778C63.3244 5.28604 64.3139 5.49254 65.2253 5.42141C65.2296 8.98472 65.2339 12.548 65.2231 16.1113C67.5818 16.1366 69.9449 16.0746 72.3014 16.1435C72.4946 16.9465 72.3166 17.8666 72.3861 18.7156C69.0704 18.7523 65.7525 18.7546 62.4369 18.7362C62.4651 14.3308 62.4108 9.92087 62.4629 5.51778ZM78.31 7.85355C78.668 7.03213 78.974 6.18318 79.4123 5.40306C80.3215 5.43518 81.2307 5.42141 82.1421 5.42141C84.0299 9.86121 85.9308 14.2941 87.7948 18.7431C86.8313 18.7339 85.8657 18.7362 84.9023 18.7431C84.5464 17.885 84.1883 17.0268 83.8368 16.1641C81.784 16.1435 79.7313 16.171 77.6807 16.1481C77.2945 16.9947 76.9342 17.8528 76.6196 18.7293C75.641 18.8395 74.6536 18.8234 73.675 18.7431C75.233 15.1201 76.7607 11.4834 78.31 7.85585V7.85355ZM78.6485 13.5163C80.0525 13.5163 81.4586 13.5209 82.8647 13.5094C82.153 11.7335 81.4564 9.9484 80.7403 8.17478C80.0242 9.94611 79.3342 11.7312 78.6485 13.5163ZM89.6544 5.42141C91.6985 5.43977 93.7448 5.39618 95.7888 5.44206C97.668 5.50172 99.7034 5.99274 101.018 7.51626C102.388 9.03979 102.631 11.2998 102.409 13.3006C102.231 15.2119 101.159 17.059 99.4951 17.901C97.9458 18.6857 96.1816 18.7729 94.4912 18.7385C92.8768 18.8441 91.2602 18.7018 89.6436 18.7339C89.6631 14.2964 89.6436 9.85892 89.6544 5.42141ZM92.3972 8.05546C92.3907 10.7446 92.3907 13.4337 92.3972 16.1228C94.1614 16.0333 96.034 16.3454 97.6962 15.5561C100.231 14.3653 100.281 9.85892 97.7505 8.63367C96.0796 7.80078 94.1787 8.11971 92.3972 8.05546ZM102.913 18.8005C104.657 14.2895 106.682 9.89333 108.524 5.42141C109.444 5.42371 110.364 5.43059 111.284 5.40994C113.261 9.80614 115.051 14.2987 117 18.711C116.021 18.711 115.041 18.8418 114.064 18.7247C113.728 17.8597 113.357 17.0108 113.005 16.1503C110.946 16.1595 108.884 16.1389 106.825 16.1595C106.461 17.0062 106.172 17.8918 105.742 18.7041C104.824 18.9221 103.85 18.6398 102.913 18.8005ZM107.839 13.514C109.238 13.5209 110.64 13.5255 112.042 13.514C111.354 11.7335 110.636 9.96446 109.93 8.19084C109.201 9.95299 108.503 11.7289 107.839 13.5163V13.514Z" fill="white"/>
</svg>
