<svg width="13" height="14" viewBox="0 0 13 14" fill="none" xmlns="http://www.w3.org/2000/svg">
<g id="fi:map-pin" clip-path="url(#clip0_1903_448)">
<path id="Vector" d="M11.375 5.91669C11.375 9.70835 6.5 12.9584 6.5 12.9584C6.5 12.9584 1.625 9.70835 1.625 5.91669C1.625 4.62376 2.13861 3.38378 3.05285 2.46954C3.96709 1.5553 5.20707 1.04169 6.5 1.04169C7.79293 1.04169 9.03291 1.5553 9.94715 2.46954C10.8614 3.38378 11.375 4.62376 11.375 5.91669Z" stroke="white" stroke-linecap="round" stroke-linejoin="round"/>
<path id="Vector_2" d="M6.5 7.54169C7.39746 7.54169 8.125 6.81415 8.125 5.91669C8.125 5.01922 7.39746 4.29169 6.5 4.29169C5.60254 4.29169 4.875 5.01922 4.875 5.91669C4.875 6.81415 5.60254 7.54169 6.5 7.54169Z" stroke="white" stroke-linecap="round" stroke-linejoin="round"/>
</g>
<defs>
<clipPath id="clip0_1903_448">
<rect width="13" height="13" fill="white" transform="translate(0 0.5)"/>
</clipPath>
</defs>
</svg>
