<svg width="61" height="95" viewBox="0 0 61 95" fill="none" xmlns="http://www.w3.org/2000/svg">
<g id="Group 10">
<path id="Vector" d="M57.9258 44.1071C47.6411 67.8571 30.5 95 30.5 95C30.5 95 13.3589 67.8571 3.07419 44.1071C-7.21049 20.3571 9.93064 0 30.5 0C51.0694 0 68.2105 20.3571 57.9258 44.1071Z" fill="#4C5865"/>
<path id="Vector_2" fill-rule="evenodd" clip-rule="evenodd" d="M28.4632 22.0324C33.3022 21.8725 38.1846 22.2921 42.8775 23.5727C45.1996 24.2339 47.4973 25.1004 49.5429 26.4445C50.8526 27.3364 52.1224 28.459 52.7225 30.0102C53.2217 31.2545 53.0234 32.724 52.3207 33.8393C51.324 35.4741 49.715 36.5676 48.0939 37.4377C44.2151 39.4376 39.9049 40.3077 35.6312 40.78C30.6722 41.1851 25.6471 41.0743 20.7542 40.0807C17.7607 39.4631 14.7811 38.5621 12.1094 36.9891C10.7231 36.1535 9.38033 35.1018 8.55586 33.6377C7.93142 32.5496 7.82009 31.1564 8.28799 29.9848C8.75241 28.7641 9.66907 27.8051 10.657 27.0258C12.3877 25.6853 14.395 24.7934 16.4318 24.0922C20.3176 22.7844 24.3965 22.2376 28.4632 22.0324ZM21.8865 23.9015C18.9418 24.5373 15.9744 25.4528 13.4644 27.2365C12.1651 28.1738 10.9353 29.5089 10.7579 31.2236C10.6431 32.7367 11.5267 34.1082 12.5773 35.0618C14.3063 36.6367 16.4753 37.5467 18.6321 38.2806C18.8096 37.8882 18.9887 37.4958 19.1748 37.1071C20.6916 37.2361 22.1979 37.5158 23.7233 37.5431C25.6436 37.5721 27.5726 37.6012 29.4825 37.3523C30.954 37.1798 32.4881 37.0526 33.8222 36.3206C34.4763 35.97 34.9581 35.2689 34.9946 34.4932C35.0694 33.9029 34.8067 33.2726 35.0242 32.7113C35.5547 32.2136 36.1704 31.8085 36.7809 31.4253C38.0524 31.4016 39.3291 31.5379 40.6006 31.6269C40.4876 32.0211 40.4424 32.4588 40.2093 32.7985C39.5222 33.0546 38.7465 33.0092 38.1011 33.3907C38.9291 34.1082 39.8144 34.9383 39.9953 36.1081C40.2284 37.178 39.7692 38.2406 39.1152 39.0435C41.4947 38.6093 43.8255 37.8101 45.9754 36.6548C47.2138 35.9609 48.4053 35.0963 49.2454 33.8993C50.0403 32.7295 50.3134 31.1019 49.6629 29.7923C48.7706 27.8668 46.9477 26.6425 45.1526 25.7543C42.8949 24.6571 40.4598 24.0196 38.0107 23.6036C38.1707 24.3138 38.3081 25.0386 38.2646 25.7724C38.2507 27.0058 37.6924 28.1466 37.0175 29.1274C35.132 31.7558 32.3646 33.7067 29.2998 34.466C26.2837 35.2489 23.1441 35.3833 20.0532 35.169C20.1732 34.5314 20.495 33.9701 20.7281 33.3761C22.1335 30.0611 23.5424 26.7461 24.9531 23.4329C23.9182 23.4764 22.9058 23.7271 21.8865 23.9015ZM22.4101 33.3398C23.7703 33.0419 24.9305 32.1428 25.8837 31.1219C26.9743 29.9121 27.8979 28.5389 28.6302 27.0658C29.0198 26.2429 29.3885 25.2711 29.0824 24.3611C28.6197 23.4365 27.4613 23.5491 26.6159 23.52C25.1653 26.7697 23.8399 30.0793 22.4101 33.3398Z" fill="white"/>
</g>
</svg>
