<svg width="16" height="16" viewBox="0 0 16 16" fill="none" xmlns="http://www.w3.org/2000/svg">
<g id="Layer 2">
<g id="double_chvron_right">
<path id="Vector" d="M7.74085 0.0316643C7.31001 0.126518 7.01974 0.383079 6.89803 0.818491C6.76375 1.29733 6.91174 1.69217 7.25058 2.0293C8.56444 3.33782 9.87867 4.64577 11.1933 5.95315C11.851 6.60912 12.5024 7.27081 13.2246 7.99821L7.24373 13.9803C6.74432 14.4791 6.71518 15.1928 7.15459 15.655C7.594 16.1173 8.34254 16.1236 8.83224 15.6368C11.1019 13.3797 13.3654 11.1166 15.6228 8.84732C16.1137 8.35362 16.1257 7.66108 15.6411 7.17367C13.3761 4.89376 11.1041 2.62071 8.82538 0.354509C8.68913 0.20984 8.51705 0.103778 8.32658 0.0470794C8.13611 -0.00961927 7.93404 -0.0149374 7.74085 0.0316643Z" fill="url(#paint0_linear_1937_1026)"/>
<path id="Vector_2" d="M0.893633 0.0316336C0.462793 0.126487 0.172519 0.383049 0.0502382 0.81846C-0.0834708 1.2973 0.0645233 1.69214 0.402796 2.02927C1.71703 3.33779 3.03126 4.64574 4.3455 5.95311C5.00261 6.60909 5.65459 7.27078 6.37685 7.99818L0.398224 13.9802C-0.101756 14.4791 -0.130326 15.1928 0.309085 15.655C0.748496 16.1173 1.49704 16.1236 1.98616 15.6367C4.25579 13.3797 6.51932 11.1165 8.77675 8.84729C9.26759 8.35359 9.27959 7.66105 8.79561 7.17364C6.53055 4.89373 4.25864 2.62067 1.97988 0.354478C1.8434 0.209617 1.67102 0.103446 1.48024 0.046744C1.28946 -0.00995758 1.08708 -0.0151708 0.893633 0.0316336Z" fill="url(#paint1_linear_1937_1026)"/>
</g>
</g>
<defs>
<linearGradient id="paint0_linear_1937_1026" x1="11.4199" y1="-6.59634" x2="11.4199" y2="22.1176" gradientUnits="userSpaceOnUse">
<stop stop-color="#FF8743"/>
<stop offset="1" stop-color="#EB732F"/>
</linearGradient>
<linearGradient id="paint1_linear_1937_1026" x1="4.57406" y1="-6.59668" x2="4.57406" y2="22.1176" gradientUnits="userSpaceOnUse">
<stop stop-color="#FDAE3E"/>
<stop offset="1" stop-color="#FF8743"/>
</linearGradient>
</defs>
</svg>
