<svg width="17" height="17" viewBox="0 0 17 17" fill="none" xmlns="http://www.w3.org/2000/svg">
<g id="fi:phone-call" clip-path="url(#clip0_1908_480)">
<path id="Vector" d="M10.6603 3.54165C11.3522 3.67663 11.988 4.015 12.4865 4.51343C12.9849 5.01187 13.3233 5.64771 13.4583 6.33956M10.6603 0.708313C12.0978 0.867997 13.4381 1.51169 14.4614 2.53369C15.4847 3.5557 16.1301 4.89528 16.2916 6.33248M15.5833 11.985V14.11C15.5841 14.3073 15.5437 14.5025 15.4646 14.6833C15.3856 14.864 15.2697 15.0263 15.1243 15.1596C14.979 15.293 14.8073 15.3945 14.6205 15.4577C14.4336 15.5209 14.2356 15.5444 14.0391 15.5266C11.8594 15.2898 9.76572 14.545 7.92618 13.3521C6.21473 12.2645 4.76371 10.8135 3.67618 9.10206C2.47908 7.25417 1.7341 5.15027 1.5016 2.96081C1.4839 2.76494 1.50718 2.56752 1.56995 2.38113C1.63273 2.19474 1.73363 2.02347 1.86622 1.87821C1.99882 1.73295 2.16021 1.6169 2.34012 1.53743C2.52002 1.45797 2.71451 1.41683 2.91118 1.41665H5.03618C5.37994 1.41326 5.7132 1.53499 5.97385 1.75915C6.23449 1.9833 6.40474 2.29459 6.45285 2.63498C6.54254 3.31503 6.70888 3.98274 6.94868 4.6254C7.04398 4.87893 7.06461 5.15446 7.00812 5.41935C6.95162 5.68425 6.82038 5.92739 6.62993 6.11998L5.73035 7.01956C6.7387 8.79291 8.207 10.2612 9.98035 11.2696L10.8799 10.37C11.0725 10.1795 11.3157 10.0483 11.5806 9.9918C11.8455 9.9353 12.121 9.95593 12.3745 10.0512C13.0172 10.291 13.6849 10.4574 14.3649 10.5471C14.709 10.5956 15.0233 10.7689 15.2479 11.034C15.4725 11.2992 15.5919 11.6376 15.5833 11.985Z" stroke="white" stroke-linecap="round" stroke-linejoin="round"/>
</g>
<defs>
<clipPath id="clip0_1908_480">
<rect width="17" height="17" fill="white"/>
</clipPath>
</defs>
</svg>
