<svg width="27" height="24" viewBox="0 0 27 24" fill="none" xmlns="http://www.w3.org/2000/svg">
<g id="Vector">
<path id="Vector_2" d="M4.16023 15.1602C3.77514 15.1602 3.46539 15.1602 3.09705 15.1602C3.09705 15.5181 3.11379 15.8594 3.09705 16.1923C3.06356 16.8166 2.66173 17.2077 2.06736 17.2077C1.46462 17.2077 1.02093 16.7916 1.01256 16.159C0.995814 14.769 0.995814 13.3874 1.01256 11.9974C1.02093 11.3981 1.47299 10.9653 2.03388 10.9486C2.60313 10.932 3.06356 11.3815 3.09705 12.0057C3.09705 12.0723 3.09705 12.1389 3.10542 12.2055C3.12216 13.1543 3.12216 13.1543 4.16023 13.0045C4.16023 12.4135 4.16023 11.8226 4.16023 11.2233C4.16023 10.4909 4.16023 9.75842 4.16023 9.01765C4.1686 8.25191 4.56206 7.83575 5.33223 7.8191C6.15263 7.80245 6.97303 7.8191 7.79344 7.81078C7.96924 7.81078 8.14504 7.81078 8.34595 7.81078C8.34595 7.4612 8.34595 7.16988 8.34595 6.79534C8.05295 6.79534 7.76832 6.80366 7.48369 6.79534C6.68841 6.77037 6.26146 6.37085 6.25309 5.58014C6.23635 4.63129 6.23635 3.69076 6.25309 2.7419C6.26146 1.95952 6.68841 1.54335 7.49207 1.54335C10.1877 1.53503 12.8749 1.53503 15.5705 1.54335C16.3742 1.54335 16.776 1.96784 16.776 2.75855C16.776 3.69076 16.776 4.62296 16.776 5.54685C16.776 6.37085 16.3742 6.77037 15.5454 6.78701C15.2859 6.79534 15.0264 6.78701 14.725 6.78701C14.725 7.11994 14.725 7.41958 14.725 7.80245C15.244 7.80245 15.7798 7.80245 16.3156 7.80245C17.5043 7.80245 17.8392 8.13538 17.8392 9.30896C17.8392 9.48375 17.8392 9.66687 17.8392 9.90824C18.4922 9.90824 19.1116 9.90824 19.7311 9.90824C20.4762 9.91656 20.7608 10.1246 20.9952 10.8155C21.1208 11.1983 21.2464 11.5812 21.4724 11.9641C21.5729 11.6561 21.6817 11.3398 21.7738 11.0319C22.0165 10.2328 22.2426 9.44214 22.4853 8.6431C22.6611 8.0688 23.0044 7.81078 23.6071 7.79413C24.101 7.77748 24.595 7.77748 25.0805 7.79413C25.8256 7.8191 26.2274 8.23526 26.2274 8.96771C26.2274 13.0628 26.2274 17.1578 26.2274 21.2529C26.2274 21.9936 25.8256 22.4098 25.0889 22.4348C24.6284 22.4514 24.168 22.4431 23.7076 22.4348C23.1048 22.4348 22.6863 22.1767 22.4686 21.5858C22.2175 20.9116 21.9496 20.2457 21.6733 19.5882C21.6231 19.4717 21.4975 19.3219 21.3971 19.3219C21.2882 19.3135 21.1375 19.4384 21.0706 19.5466C20.8111 19.9461 20.5767 20.3539 20.3339 20.7618C20.0911 21.1779 19.7395 21.3777 19.2456 21.3777C15.1101 21.3694 10.9746 21.3694 6.83909 21.3777C6.30332 21.3777 5.93497 21.153 5.70894 20.6786C5.24014 19.6881 4.7546 18.7143 4.30254 17.7155C4.20208 17.4991 4.17697 17.241 4.1686 17.008C4.15185 16.417 4.16023 15.8011 4.16023 15.1602Z" stroke="#FF8743" stroke-width="1.5" stroke-miterlimit="10" stroke-linecap="round" stroke-linejoin="round"/>
</g>
</svg>
