<svg width="24" height="24" viewBox="0 0 24 24" fill="none" xmlns="http://www.w3.org/2000/svg">
<g clip-path="url(#clip0_114_107)">
<g clip-path="url(#clip1_114_107)">
<g clip-path="url(#clip2_114_107)">
<path d="M-0.0621338 8.59326C-0.0621338 3.89884 3.74345 0.0932617 8.43787 0.0932617H15.4379C20.1323 0.0932617 23.9379 3.89884 23.9379 8.59326V15.5933C23.9379 20.2877 20.1323 24.0933 15.4379 24.0933H8.43787C3.74345 24.0933 -0.0621338 20.2877 -0.0621338 15.5933V8.59326Z" fill="white"/>
<path d="M11.4848 8.28654C11.5988 8.41781 11.7641 8.49321 11.9379 8.49321C12.1117 8.49321 12.277 8.41781 12.391 8.28654C12.5568 8.09556 12.7517 7.92694 12.969 7.78518C13.4505 7.47109 14.0355 7.29321 14.6379 7.29321C16.1655 7.29321 17.3379 8.45972 17.3379 9.93026C17.3379 10.4763 17.2083 11.004 16.9748 11.521C16.2293 13.1726 14.492 14.607 12.8512 15.9461L12.8452 15.951C12.5341 16.2049 12.2273 16.4554 11.9379 16.7002C11.6485 16.4554 11.3417 16.2049 11.0306 15.951L11.0246 15.9461C9.3837 14.607 7.64646 13.1728 6.90105 11.5211C6.66752 11.0041 6.53787 10.4763 6.53787 9.93026C6.53787 8.45972 7.7103 7.29321 9.23787 7.29321C9.8403 7.29321 10.4253 7.47109 10.9068 7.78518C11.1237 7.92671 11.3184 8.095 11.484 8.28559C11.4843 8.28591 11.4845 8.28622 11.4848 8.28654Z" stroke="#1D1D1D" stroke-width="1.2" stroke-linecap="round" stroke-linejoin="round"/>
</g>
</g>
</g>
<defs>
<clipPath id="clip0_114_107">
<rect width="23.77" height="23.77" fill="white" transform="translate(0.0528564 0.208252)"/>
</clipPath>
<clipPath id="clip1_114_107">
<rect width="23.77" height="23.77" fill="white" transform="translate(0.0528564 0.208252)"/>
</clipPath>
<clipPath id="clip2_114_107">
<rect width="24" height="24" fill="white" transform="translate(-0.0621338 0.0932617)"/>
</clipPath>
</defs>
</svg>
