<svg width="21" height="21" viewBox="0 0 21 21" fill="none" xmlns="http://www.w3.org/2000/svg">
<g clip-path="url(#clip0_114_514)">
<path d="M13.9451 16.4722C13.9451 15.6352 14.6226 14.9704 15.4469 14.9704C16.2564 14.9704 16.9312 15.6415 16.9486 16.4774C16.9458 17.312 16.2695 17.9739 15.4469 17.9739C14.6099 17.9739 13.9451 17.2965 13.9451 16.4722Z" stroke="#1D1D1D" stroke-width="1.2" stroke-linecap="round" stroke-linejoin="round"/>
<path d="M5.65825 4.41503C5.70212 4.70894 5.95451 4.92646 6.25168 4.92646H18.9622C18.9629 4.9266 18.9637 4.92674 18.9645 4.92689L18.9682 4.92757C18.9781 4.92939 19.0003 4.93349 19.0201 4.93654C19.0293 4.93796 19.0422 4.93984 19.0578 4.9416C19.1615 4.97078 19.219 5.07176 19.2028 5.1623C19.2027 5.16288 19.2025 5.16346 19.2024 5.16403L17.8908 11.7219C17.7253 12.48 17.0565 13.0227 16.2956 13.0227H7.88863C7.09645 13.0227 6.41762 12.4338 6.29947 11.6548C6.29942 11.6544 6.29936 11.654 6.29931 11.6537L5.04668 3.12774C5.04518 3.11754 5.04342 3.10739 5.0414 3.09729C4.97808 2.78066 4.69938 2.43307 4.25096 2.43307H2.61401C2.50078 2.43307 2.40564 2.33793 2.40564 2.2247C2.40564 2.11147 2.50078 2.01633 2.61401 2.01633H4.25096C4.86442 2.01633 5.37492 2.46563 5.45509 3.05351L5.45616 3.06101L5.65825 4.41503Z" stroke="#1D1D1D" stroke-width="1.2" stroke-linecap="round" stroke-linejoin="round"/>
<path d="M9.69386 16.3929L9.6943 16.4027C9.73652 17.2048 9.10395 17.9025 8.2757 17.9537H8.25233C7.46869 17.9537 6.81966 17.3251 6.79061 16.5316C6.76219 15.7159 7.38641 15.0221 8.22731 14.9705C9.01175 14.9787 9.66546 15.6118 9.69386 16.3929Z" stroke="#1D1D1D" stroke-width="1.2" stroke-linecap="round" stroke-linejoin="round"/>
</g>
<defs>
<clipPath id="clip0_114_514">
<rect width="20" height="20" fill="white" transform="translate(0.805664 0.416321)"/>
</clipPath>
</defs>
</svg>
