<svg width="10" height="14" viewBox="0 0 10 14" fill="none" xmlns="http://www.w3.org/2000/svg">
<path d="M8.63948 5.57337C8.68692 5.62081 8.71063 5.67536 8.71063 5.73703C8.71063 5.7987 8.68692 5.85325 8.63948 5.90069L5.32366 9.2165C5.27622 9.26394 5.22167 9.28766 5.16 9.28766C5.09834 9.28766 5.04378 9.26394 4.99635 9.2165L1.68053 5.90069C1.63309 5.85325 1.60938 5.7987 1.60938 5.73703C1.60938 5.67536 1.63309 5.62081 1.68053 5.57337L2.0363 5.2176C2.08374 5.17016 2.13829 5.14644 2.19996 5.14644C2.26163 5.14644 2.31618 5.17016 2.36362 5.2176L5.16 8.01399L7.95639 5.2176C8.00383 5.17016 8.05838 5.14644 8.12005 5.14644C8.18172 5.14644 8.23627 5.17016 8.2837 5.2176L8.63948 5.57337Z" fill="black"/>
</svg>
