<svg width="10" height="13" viewBox="0 0 10 13" fill="none" xmlns="http://www.w3.org/2000/svg">
<path d="M8.63948 8.26108C8.68692 8.30851 8.71063 8.36307 8.71063 8.42473C8.71063 8.4864 8.68692 8.54095 8.63948 8.58839L8.2837 8.94416C8.23627 8.9916 8.18172 9.01532 8.12005 9.01532C8.05838 9.01532 8.00383 8.9916 7.95639 8.94416L5.16 6.14778L2.36362 8.94416C2.31618 8.9916 2.26163 9.01532 2.19996 9.01532C2.13829 9.01532 2.08374 8.9916 2.0363 8.94416L1.68053 8.58839C1.63309 8.54095 1.60938 8.4864 1.60938 8.42473C1.60938 8.36307 1.63309 8.30851 1.68053 8.26108L4.99635 4.94526C5.04378 4.89782 5.09834 4.8741 5.16 4.8741C5.22167 4.8741 5.27622 4.89782 5.32366 4.94526L8.63948 8.26108Z" fill="black"/>
</svg>
