<svg width="21" height="22" viewBox="0 0 21 22" fill="none" xmlns="http://www.w3.org/2000/svg">
<g clip-path="url(#clip0_215_612)">
<g clip-path="url(#clip1_215_612)">
<g clip-path="url(#clip2_215_612)">
<path d="M9.93714 4.75341C10.0511 4.88469 10.2164 4.96008 10.3902 4.96008C10.564 4.96008 10.7293 4.88469 10.8433 4.75341C11.1449 4.40597 11.4982 4.10073 11.8902 3.84502C12.7578 3.2791 13.8086 2.96008 14.8902 2.96008C17.6498 2.96008 19.7902 5.07613 19.7902 7.75518C19.7902 8.73065 19.5583 9.66612 19.1495 10.5711C17.8606 13.427 14.878 15.8777 12.1653 18.0915L12.1592 18.0965C11.5434 18.5991 10.9429 19.0892 10.3902 19.5641C9.83758 19.0892 9.23699 18.5991 8.6212 18.0965L8.61509 18.0915C5.90237 15.8776 2.91986 13.4271 1.63094 10.5711C1.22218 9.6662 0.990234 8.73059 0.990234 7.75518C0.990234 5.07613 3.13066 2.96008 5.89023 2.96008C6.97183 2.96008 8.02266 3.2791 8.89024 3.84502C9.28225 4.10073 9.63552 4.40597 9.93714 4.75341Z" stroke="#1D1D1D" stroke-width="1.2" stroke-linecap="round" stroke-linejoin="round"/>
</g>
</g>
</g>
<defs>
<clipPath id="clip0_215_612">
<rect width="20" height="21" fill="white" transform="translate(0.390137 0.860107)"/>
</clipPath>
<clipPath id="clip1_215_612">
<rect width="20" height="21" fill="white" transform="translate(0.390137 0.860107)"/>
</clipPath>
<clipPath id="clip2_215_612">
<rect width="20" height="21" fill="white" transform="translate(0.390137 0.860107)"/>
</clipPath>
</defs>
</svg>
