<svg width="21" height="21" viewBox="0 0 21 21" fill="none" xmlns="http://www.w3.org/2000/svg">
<g clip-path="url(#clip0_114_509)">
<g clip-path="url(#clip1_114_509)">
<path d="M10.2926 2.80966C10.4066 2.94094 10.5719 3.01633 10.7457 3.01633C10.9195 3.01633 11.0848 2.94094 11.1988 2.80966C11.5004 2.46222 11.8537 2.15698 12.2457 1.90127C13.1133 1.33535 14.1641 1.01633 15.2457 1.01633C18.0053 1.01633 20.1457 3.13238 20.1457 5.81143C20.1457 6.7869 19.9138 7.72237 19.505 8.62732C18.2161 11.4832 15.2335 13.9339 12.5208 16.1477L12.5147 16.1527C11.8989 16.6553 11.2984 17.1454 10.7457 17.6203C10.1931 17.1454 9.59246 16.6553 8.97667 16.1527L8.97056 16.1477C6.25784 13.9338 3.27533 11.4833 1.98641 8.62736C1.57765 7.72245 1.3457 6.78684 1.3457 5.81143C1.3457 3.13238 3.48613 1.01633 6.2457 1.01633C7.3273 1.01633 8.37813 1.33535 9.24571 1.90127C9.63772 2.15698 9.99099 2.46222 10.2926 2.80966Z" stroke="#1D1D1D" stroke-width="1.2" stroke-linecap="round" stroke-linejoin="round"/>
</g>
</g>
<defs>
<clipPath id="clip0_114_509">
<rect width="20" height="20" fill="white" transform="translate(0.745728 0.416321)"/>
</clipPath>
<clipPath id="clip1_114_509">
<rect width="20" height="18" fill="white" transform="translate(0.745728 0.416321)"/>
</clipPath>
</defs>
</svg>
