<svg width="24" height="24" viewBox="0 0 24 24" fill="none" xmlns="http://www.w3.org/2000/svg">
<g clip-path="url(#clip0_33_2601)">
<g clip-path="url(#clip1_33_2601)">
<path d="M0.0250015 8.38501C0.0250015 3.69059 3.83058 -0.11499 8.525 -0.11499H15.525C20.2194 -0.11499 24.025 3.69059 24.025 8.38501V15.385C24.025 20.0794 20.2194 23.885 15.525 23.885H8.525C3.83058 23.885 0.0250015 20.0794 0.0250015 15.385V8.38501Z" fill="white"/>
<path d="M11.5719 8.07829C11.6859 8.20956 11.8512 8.28496 12.025 8.28496C12.1988 8.28496 12.3641 8.20956 12.4781 8.07829C12.6439 7.88731 12.8388 7.71869 13.0561 7.57693C13.5376 7.26284 14.1226 7.08496 14.725 7.08496C16.2526 7.08496 17.425 8.25147 17.425 9.72201C17.425 10.2681 17.2954 10.7958 17.0619 11.3128C16.3164 12.9644 14.5791 14.3988 12.9383 15.7379L12.9323 15.7428C12.6212 15.9967 12.3144 16.2472 12.025 16.492C11.7356 16.2472 11.4288 15.9967 11.1177 15.7428L11.1117 15.7379C9.47083 14.3988 7.73359 12.9646 6.98818 11.3129C6.75465 10.7959 6.625 10.2681 6.625 9.72201C6.625 8.25147 7.79743 7.08496 9.325 7.08496C9.92743 7.08496 10.5124 7.26284 10.9939 7.57693C11.2108 7.71846 11.4055 7.88675 11.5711 8.07734C11.5714 8.07766 11.5716 8.07797 11.5719 8.07829Z" stroke="#1D1D1D" stroke-width="1.2" stroke-linecap="round" stroke-linejoin="round"/>
<path d="M15.7328 9.95804C15.7328 9.94142 15.7328 9.9248 15.7189 9.88022C15.7051 9.83564 15.6774 9.76361 15.5772 9.77914C15.2832 9.82474 15.0563 10.0694 14.9195 10.1783C14.8564 10.2286 14.7992 10.2596 14.7901 10.274C14.6971 10.4199 15.2339 10.1207 15.3126 10.0675C15.3577 10.037 14.9572 10.1642 14.5852 10.3069C14.4504 10.3585 14.4292 10.3775 14.5978 10.2669C14.7665 10.1563 15.1266 9.91808 15.3039 9.8369C15.4811 9.75572 15.4645 9.83883 15.431 9.93429C15.359 10.1394 15.2685 10.2823 15.2182 10.3493C15.1965 10.3783 15.179 10.3943 15.1705 10.3668C15.1407 10.2715 15.1896 10.1211 15.2482 9.98147C15.3637 9.70634 15.6033 9.56112 15.7208 9.52721C15.9631 9.45722 16.0504 10.0628 16.1579 10.215C16.2198 10.3027 16.2197 10.4055 16.2225 10.4392C16.2328 10.5645 16.309 10.0595 16.3287 9.6601C16.333 9.574 16.3763 9.53863 16.3737 9.46332C16.3667 9.26923 16.1922 9.18603 16.0719 9.07975C15.9833 9.00156 15.8788 8.95668 15.4048 8.94492C15.1181 8.93782 14.9163 9.02317 14.6023 9.11215C14.3505 9.18352 13.906 9.28979 13.6029 9.34688C13.1544 9.43133 12.9461 9.42613 12.8345 9.46802C12.5914 9.55932 12.4426 9.63869 12.3665 9.65867C12.2606 9.68649 12.4916 9.32673 12.7233 9.10552C12.8126 9.02026 12.9651 8.92478 13.1224 8.82345C13.4402 8.61875 13.6671 8.50872 13.762 8.47236C13.8425 8.44156 14.0521 8.39706 14.3455 8.31596C14.7251 8.21105 14.9435 8.26778 14.9714 8.28448C15.0977 8.35994 15.1451 8.71423 15.1089 8.86626C15.0695 9.03213 14.8602 9.16286 14.6849 9.29374C14.5628 9.38491 14.36 9.50773 14.1021 9.60108C13.8442 9.69444 13.5339 9.74985 13.1386 9.77562C12.7433 9.80139 12.2723 9.79585 11.905 9.77637C11.5377 9.7569 11.2884 9.72365 11.0325 9.67051C10.7766 9.61737 10.5218 9.54534 10.3489 9.48053C9.95375 9.33237 9.87334 9.21961 9.78662 9.15791C9.62584 9.04351 9.31422 8.87877 9.18502 8.67435C9.08783 8.52057 8.97238 8.46405 8.8493 8.39681C8.81619 8.37872 8.78231 8.36331 8.7735 8.35198C8.76208 8.3373 8.96465 8.3294 9.24698 8.34048C9.36352 8.34505 9.42403 8.37372 9.6078 8.4073C9.79157 8.44088 10.0963 8.48521 10.2727 8.51358C10.5784 8.56276 10.8505 8.79247 10.9699 8.90018C11.0313 8.95555 10.758 8.77182 10.527 8.70214C10.3695 8.65465 10.1242 8.60476 9.76865 8.57344C9.41312 8.54213 8.95323 8.53659 8.70801 8.53927C8.46279 8.54196 8.44617 8.55304 8.43207 8.57537C8.36453 8.6823 8.30614 8.78777 8.30026 8.96667C8.29312 9.184 8.43408 9.3808 8.52945 9.52939C8.61053 9.65572 8.78046 9.90045 9.01771 10.2076C9.24145 10.4973 9.40271 10.635 9.46668 10.6935C9.57868 10.796 9.72693 10.8755 9.83027 10.9537C9.91261 11.016 10.0456 11.0936 10.2575 11.2081C10.5171 11.3484 10.7733 11.3627 11.0709 11.3795C11.2907 11.3919 11.6511 11.3852 11.953 11.3686C12.2549 11.352 12.4876 11.3187 12.6684 11.2794C12.8492 11.2401 12.9711 11.1958 13.1724 11.1397C13.3738 11.0837 13.6508 11.0172 13.896 10.9829C14.1412 10.9487 14.3462 10.9487 14.4823 10.9404C14.6806 10.9282 14.8474 10.8983 15.0568 10.9094C15.1613 10.9149 15.2606 10.9426 15.3176 10.9623C15.3745 10.9821 15.3856 10.9987 15.3996 11.0433C15.4357 11.1583 15.4418 11.3837 15.4223 11.6325C15.4108 11.7801 15.3191 11.8772 15.1882 12.011C14.9935 12.21 14.7155 12.3473 14.4919 12.4506C14.329 12.5259 14.2 12.6106 14.0022 12.7191C13.6879 12.8916 13.4666 13.0362 13.3744 13.0529C13.3321 13.0641 13.2989 13.0807 13.2568 13.1059C13.2148 13.1311 13.1649 13.1643 13.0799 13.2321" stroke="#1D1D1D" stroke-width="2" stroke-linecap="round"/>
<path d="M7.45521 9.47097C7.36622 9.64274 7.24265 10.058 7.25365 10.1702C7.26147 10.2501 7.39846 10.3877 7.47461 10.5312C7.55437 10.6815 7.87396 10.9304 8.04514 11.0908C8.16283 11.2011 8.17685 11.4462 8.30245 11.5692C8.51434 11.7767 8.59661 11.8381 8.83537 12.0353C9.03807 12.2027 9.41765 12.4929 9.63391 12.6552C9.88925 12.8469 9.96786 12.8848 10.0957 12.9682C10.3604 13.1409 10.5668 13.2541 10.617 13.296C10.7375 13.3966 10.9076 13.4778 11.0812 13.5563C11.1745 13.5985 11.3935 13.6793 11.6788 13.7464C11.818 13.7792 11.9318 13.7249 12.1408 13.5941C12.463 13.3923 12.6822 13.1878 12.7492 13.0705C12.8065 12.9704 12.8057 12.8686 12.789 12.7821C12.7728 12.698 12.6776 12.6057 12.5547 12.5134C12.4635 12.445 12.292 12.4428 12.0686 12.4511C11.8659 12.4587 11.7204 12.5154 11.5867 12.5905C11.3756 12.7091 11.2555 12.8344 11.2359 12.879C11.2172 12.9219 11.2218 13.002 11.2468 13.1025C11.2696 13.1942 11.3836 13.254 11.5173 13.3349C11.5976 13.3835 11.7176 13.4214 12.0989 13.5273C12.4802 13.6333 13.1229 13.7995 13.4679 13.8934C13.8128 13.9874 13.8405 14.004 13.852 14.0264C13.8751 14.0713 13.8246 14.1494 13.7604 14.2359C13.6923 14.3279 13.4789 14.4511 13.1801 14.616C13.0399 14.6933 12.909 14.731 12.763 14.7677C12.4591 14.8441 12.1966 14.8662 12.0012 14.8884C11.7914 14.9123 11.7085 14.9558 11.7365 14.9391C11.8752 14.8565 11.34 14.6596 11.1506 14.5287C11.0258 14.4423 10.8284 14.3368 10.6869 14.2603C10.4649 14.1402 10.3545 14.1051 10.3293 14.1217C10.2861 14.1501 10.4486 14.2889 10.7491 14.5007C10.9518 14.6435 11.2934 14.8012 11.606 14.9174C11.9185 15.0336 12.2011 15.089 12.3522 15.1009C12.5033 15.1128 12.5144 15.0796 12.5257 15.0181C12.5369 14.9567 12.548 14.868 12.6008 14.7448C12.6536 14.6215 12.7478 14.4664 13.0069 14.1565C13.266 13.8467 13.6871 13.3868 13.9566 13.0668C14.2262 12.7467 14.3315 12.5805 14.3995 12.4616C14.5908 12.1276 14.6078 11.8058 14.555 11.6821C14.5153 11.589 14.3733 11.581 14.27 11.5726C14.1615 11.5638 13.9933 11.6085 13.7257 11.7172C13.5666 11.7817 13.3694 11.8867 13.0422 12.0046C12.7151 12.1225 12.2663 12.2555 11.9436 12.3295C11.621 12.4035 11.4382 12.4146 11.2609 12.412C11.0836 12.4094 10.9173 12.3928 10.7541 12.3676C10.4343 12.3183 10.2095 12.2361 10.0921 12.158C9.99654 12.0943 9.92941 11.9235 9.85671 11.7029C9.79508 11.5159 9.828 11.3244 9.89206 11.1125C9.97194 10.8481 10.1076 10.6303 10.2136 10.4795C10.309 10.3437 10.4212 10.2994 10.4743 10.2826C10.5199 10.2682 10.7219 10.4265 11.057 10.6809C11.2079 10.7954 11.3478 10.8411 11.4828 10.8751C11.6178 10.9092 11.7508 10.9203 12.0409 10.8872C12.3311 10.8541 12.7743 10.7766 13.0664 10.7006C13.3585 10.6246 13.4859 10.5526 13.5903 10.4795C13.781 10.346 13.8911 10.1936 13.9498 10.0652C13.9769 10.006 13.9698 9.94782 13.9393 9.8888C13.8066 9.63182 13.5287 9.61671 13.2058 9.58313C12.989 9.56059 12.6612 9.57172 12.3736 9.60496C12.0861 9.6382 11.8479 9.70469 11.6669 9.76665C11.3646 9.8702 11.1279 9.97434 10.8823 10.0303C10.7596 10.0582 10.6366 10.064 10.4658 10.0614C10.2949 10.0588 10.0788 10.0422 9.83732 9.9976C9.59579 9.95302 9.33538 9.88099 9.19014 9.8328C9.04491 9.78462 9.02274 9.76245 8.99193 9.72056C8.91836 9.62053 8.87684 9.41641 8.89892 9.1622C8.90921 9.04371 8.98748 8.95787 9.06321 8.87341C9.13893 8.78896 9.22758 8.71139 9.32035 8.74069C9.41312 8.76998 9.50731 8.9085 9.61401 9.04081C9.72071 9.17312 9.83707 9.29501 9.97181 9.41876C10.1066 9.5425 10.2562 9.6644 10.444 9.77706C10.6319 9.88972 10.8535 9.98946 11.0536 10.063C11.2537 10.1365 11.4254 10.1809 11.8796 10.212C12.3338 10.2432 13.0651 10.2598 13.5638 10.224C14.0625 10.1883 14.3063 10.0996 14.5344 9.97636C14.7625 9.85312 14.9675 9.69798 15.0953 9.59589C15.2718 9.45486 15.3186 9.38719 15.3186 9.3814C15.3188 9.36927 15.2966 9.43101 15.2603 9.78344C15.224 10.1359 15.1686 10.8008 15.1595 11.1405C15.1503 11.4803 15.1891 11.4747 15.3448 11.3971C15.5006 11.3194 15.7721 11.1698 15.9895 11.0789C16.2069 10.988 16.3621 10.9603 16.4226 10.946C16.4831 10.9317 16.4443 10.9317 16.4105 10.9345C16.3767 10.9373 16.349 10.9428 16.3204 10.9485" stroke="#1D1D1D" stroke-width="2" stroke-linecap="round"/>
</g>
</g>
<defs>
<clipPath id="clip0_33_2601">
<rect width="23.77" height="23.77" fill="white" transform="translate(0.139999)"/>
</clipPath>
<clipPath id="clip1_33_2601">
<rect width="24" height="24" fill="white" transform="translate(0.0250015 -0.11499)"/>
</clipPath>
</defs>
</svg>
