<svg width="94" height="43" viewBox="0 0 94 43" fill="none" xmlns="http://www.w3.org/2000/svg">
<g clip-path="url(#clip0_116_48)">
<path fill-rule="evenodd" clip-rule="evenodd" d="M0.828903 0.123489C31.829 0.123489 62.8288 0.123489 93.8289 0.123489C93.8289 14.1235 93.8289 28.1234 93.8289 42.1235C62.8288 42.1235 31.829 42.1235 0.828903 42.1235C0.828903 28.1234 0.828903 14.1235 0.828903 0.123489Z" fill="#FEFEFE"/>
<path fill-rule="evenodd" clip-rule="evenodd" d="M78.0491 10.2848C78.0825 12.317 77.523 14.2081 76.3704 15.9582C73.3318 17.0957 70.422 18.507 67.6412 20.192C70.5453 21.3194 73.455 22.4485 76.3704 23.5791C77.3835 24.0381 78.3068 24.6308 79.1403 25.3574C79.2523 25.5267 79.2523 25.6961 79.1403 25.8654C78.5754 26.9444 77.82 27.8758 76.874 28.6598C76.6503 28.7727 76.4263 28.7727 76.2026 28.6598C73.4178 27.2529 70.564 26.0111 67.6412 24.934C66.2534 24.6108 64.8545 24.3568 63.4444 24.1719C63.4543 24.8574 63.1745 25.3938 62.6051 25.7807C61.8409 26.3359 61.0016 26.7027 60.087 26.8815C60.7558 22.9535 61.0076 19.0018 60.8425 15.0267C61.8671 13.6189 63.1262 12.4617 64.6195 11.5549C64.8366 11.472 65.0605 11.4437 65.291 11.4703C64.7001 13.6901 64.2526 15.9482 63.948 18.2445C63.9598 18.4599 64.0157 18.6573 64.1159 18.8372C64.5084 18.9789 64.9002 19.12 65.291 19.2606C69.285 17.1777 73.034 14.7221 76.5383 11.8936C77.0762 11.3795 77.5798 10.8432 78.0491 10.2848Z" fill="#040404"/>
<path fill-rule="evenodd" clip-rule="evenodd" d="M84.4282 10.7928C84.652 10.7928 84.8759 10.7928 85.0997 10.7928C84.8212 13.3287 84.5694 15.8691 84.3443 18.4138C84.2884 21.9713 84.2884 25.5277 84.3443 29.0832C83.3443 30.3172 82.1411 31.3053 80.735 32.0469C80.518 32.1298 80.2941 32.1581 80.0636 32.1315C80.3649 29.7629 80.6726 27.392 80.9869 25.0186C81.2024 21.6055 81.0065 18.2184 80.3993 14.8573C80.5062 14.4158 80.7021 14.0207 80.9869 13.6719C82.0679 12.6074 83.215 11.6477 84.4282 10.7928Z" fill="#060606"/>
<path fill-rule="evenodd" clip-rule="evenodd" d="M16.6087 12.9944C16.8885 12.9944 17.1682 12.9944 17.448 12.9944C17.1902 15.3636 16.9384 17.7345 16.6926 20.1073C16.6087 22.4776 16.5807 24.8486 16.6087 27.2203C19.0681 27.3964 21.5301 27.4247 23.995 27.3049C26.2313 27.0172 28.4695 26.7632 30.7098 26.5428C30.5847 27.7266 30.0811 28.7145 29.1989 29.5065C26.8929 29.5228 24.5986 29.6922 22.3163 30.0146C19.0436 30.6707 15.7981 31.4328 12.5798 32.3009C12.8046 31.6475 12.9445 30.9701 12.9995 30.2686C13.1872 25.8165 13.0473 21.3851 12.5798 16.9743C13.5672 15.2724 14.9102 13.9458 16.6087 12.9944Z" fill="#050505"/>
<path fill-rule="evenodd" clip-rule="evenodd" d="M45.9859 13.6719C46.9373 13.6719 47.8884 13.6719 48.8397 13.6719C48.8747 14.0817 48.8186 14.4769 48.6719 14.8574C48.7838 14.9138 48.8956 14.9703 49.0076 15.0267C51.3588 14.7982 53.709 14.8264 56.0581 15.1114C57.3343 15.4007 58.3696 16.0499 59.1637 17.059C59.2757 17.567 59.2757 18.0751 59.1637 18.5832C58.1689 20.8278 56.686 22.6626 54.7152 24.0872C53.1604 24.9299 51.5376 25.6073 49.847 26.1195C44.6524 27.3405 39.3925 27.7922 34.0672 27.4743C31.5347 27.0219 30.7234 25.5824 31.6331 23.1557C32.6814 21.7743 33.6886 20.3631 34.6547 18.9219C35.3114 18.1457 36.0668 17.4964 36.921 16.9743C39.8021 15.4132 42.8238 14.3124 45.9859 13.6719Z" fill="#040404"/>
<path fill-rule="evenodd" clip-rule="evenodd" d="M47.161 17.7364C49.6779 17.6702 52.084 18.1501 54.3794 19.1759C55.707 20.1585 55.707 21.1182 54.3794 22.0549C49.0935 24.3384 43.6097 25.0158 37.9282 24.0872C36.8889 23.8826 36.0774 23.3464 35.4941 22.4783C35.2518 21.6803 35.4476 21.0312 36.0816 20.5308C39.2747 18.9012 42.6321 18.3932 46.1538 19.0066C46.5112 18.5935 46.8469 18.1701 47.161 17.7364Z" fill="#FCFCFC"/>
</g>
<defs>
<clipPath id="clip0_116_48">
<rect width="93" height="42" fill="white" transform="translate(0.912842 0.20816)"/>
</clipPath>
</defs>
</svg>
