<svg width="25" height="25" viewBox="0 0 25 25" fill="none" xmlns="http://www.w3.org/2000/svg">
<g clip-path="url(#clip0_114_459)">
<path d="M12.91 23.6901C19.2061 23.6901 24.31 18.5862 24.31 12.2901C24.31 5.99409 19.2061 0.890137 12.91 0.890137C6.61396 0.890137 1.51001 5.99409 1.51001 12.2901C1.51001 18.5862 6.61396 23.6901 12.91 23.6901Z" stroke="white" stroke-width="1.2" stroke-linecap="round" stroke-linejoin="round"/>
<path d="M17.31 8.08984H8.51001C7.95772 8.08984 7.51001 8.53756 7.51001 9.08984V15.4898C7.51001 16.0421 7.95772 16.4898 8.51001 16.4898H17.31C17.8623 16.4898 18.31 16.0421 18.31 15.4898V9.08984C18.31 8.53756 17.8623 8.08984 17.31 8.08984Z" stroke="white" stroke-width="1.2" stroke-linecap="round" stroke-linejoin="round"/>
<path d="M7.51001 9.29004L12.3553 12.5202C12.6912 12.7441 13.1288 12.7441 13.4647 12.5202L18.31 9.29004" stroke="white" stroke-width="1.2" stroke-linecap="round" stroke-linejoin="round"/>
</g>
<defs>
<clipPath id="clip0_114_459">
<rect width="24" height="24" fill="white" transform="translate(0.910034 0.290039)"/>
</clipPath>
</defs>
</svg>
