<svg width="16" height="17" viewBox="0 0 16 17" fill="none" xmlns="http://www.w3.org/2000/svg">
<path d="M14.9831 11.5519C14.2049 11.1198 13.5422 10.6864 13.0587 10.3703C12.6894 10.1292 12.4226 9.95508 12.227 9.85686C11.6802 9.58412 11.2659 9.77677 11.1082 9.93611C11.0884 9.95593 11.0707 9.97743 11.0555 10.0002C10.4877 10.8521 9.74617 11.667 9.52907 11.7108C9.27825 11.6716 8.10424 11.0043 6.93739 10.0326C5.74609 9.0399 4.99658 8.08931 4.88656 7.44181C5.65082 6.6552 5.9261 6.1603 5.9261 5.59711C5.9261 5.01664 4.57208 2.59316 4.32716 2.34824C4.0814 2.1029 3.5279 2.06453 2.68186 2.23315C2.6005 2.24959 2.52546 2.28964 2.46644 2.34824C2.36401 2.45067 -0.0329197 4.89439 1.10611 7.85619C2.35642 11.1067 5.56567 14.8851 9.65722 15.4988C10.1222 15.5684 10.5581 15.603 10.9661 15.603C13.3732 15.603 14.7938 14.3919 15.1938 11.9894C15.2238 11.8137 15.139 11.6383 14.9831 11.5519Z" stroke="#1D1D1D" stroke-width="1.2" stroke-linecap="round" stroke-linejoin="round"/>
</svg>
