<svg width="9" height="21" viewBox="0 0 9 21" fill="none" xmlns="http://www.w3.org/2000/svg">
<path d="M7.42569 6.13049C7.49867 6.20343 7.53516 6.28732 7.53516 6.38214C7.53516 6.47697 7.49867 6.56085 7.42569 6.6338L3.12356 10.9338L7.42569 15.2338C7.49867 15.3067 7.53516 15.3906 7.53516 15.4854C7.53516 15.5802 7.49867 15.6641 7.42569 15.7371L6.87835 16.2841C6.80537 16.3571 6.72144 16.3936 6.62657 16.3936C6.5317 16.3936 6.44777 16.3571 6.37479 16.2841L1.27353 11.1854C1.20055 11.1125 1.16406 11.0286 1.16406 10.9338C1.16406 10.839 1.20055 10.7551 1.27353 10.6821L6.37479 5.58342C6.44777 5.51048 6.5317 5.474 6.62657 5.474C6.72144 5.474 6.80537 5.51048 6.87835 5.58342L7.42569 6.13049Z" fill="black"/>
</svg>
