<svg width="17" height="21" viewBox="0 0 17 21" fill="none" xmlns="http://www.w3.org/2000/svg">
<g clip-path="url(#clip0_114_403)">
<g clip-path="url(#clip1_114_403)">
<g clip-path="url(#clip2_114_403)">
<path d="M12.88 1.6001H4.88C3.22315 1.6001 1.88 2.94324 1.88 4.6001V12.6001C1.88 14.257 3.22315 15.6001 4.88 15.6001H12.88C14.5369 15.6001 15.88 14.257 15.88 12.6001V4.6001C15.88 2.94324 14.5369 1.6001 12.88 1.6001Z" stroke="white" stroke-width="2"/>
<path d="M11.7204 4.62485C11.032 3.96405 10.0794 3.6001 9.03806 3.6001C7.44734 3.6001 6.46898 4.25216 5.92835 4.79913C5.26205 5.47322 4.88 6.36828 4.88 7.25485C4.88 8.36801 5.34561 9.22239 6.12532 9.54024C6.17767 9.56169 6.23034 9.57249 6.28198 9.57249C6.44648 9.57249 6.57681 9.46485 6.62197 9.29221C6.64829 9.19317 6.70928 8.94881 6.73581 8.84274C6.79256 8.63326 6.74669 8.5325 6.6229 8.38662C6.39739 8.11978 6.29238 7.80425 6.29238 7.39361C6.29238 6.17385 7.20062 4.87751 8.88398 4.87751C10.2197 4.87751 11.0493 5.63666 11.0493 6.85866C11.0493 7.6298 10.8832 8.34394 10.5816 8.86963C10.3719 9.23491 10.0032 9.67032 9.4373 9.67032C9.19257 9.67032 8.97273 9.56979 8.83401 9.39452C8.70298 9.22883 8.65977 9.01481 8.71249 8.79174C8.77202 8.53971 8.85322 8.27681 8.9318 8.02267C9.0751 7.55849 9.21056 7.12007 9.21056 6.77028C9.21056 6.17199 8.84274 5.76998 8.29538 5.76998C7.59975 5.76998 7.05476 6.47651 7.05476 7.37847C7.05476 7.82082 7.17232 8.15168 7.22554 8.27871C7.13791 8.65 6.61708 10.8574 6.51829 11.2737C6.46116 11.5167 6.11706 13.4359 6.68661 13.5889C7.32655 13.7609 7.89856 11.8917 7.95678 11.6805C8.00397 11.5087 8.16908 10.8591 8.27025 10.4599C8.57917 10.7574 9.07657 10.9586 9.56056 10.9586C10.473 10.9586 11.2935 10.548 11.8711 9.80255C12.4312 9.0795 12.7397 8.07172 12.7397 6.96499C12.7397 6.09979 12.3681 5.24681 11.7204 4.62485Z" fill="white"/>
</g>
</g>
</g>
<defs>
<clipPath id="clip0_114_403">
<rect width="16" height="16" fill="white" transform="translate(0.880005 0.600098)"/>
</clipPath>
<clipPath id="clip1_114_403">
<rect width="16" height="16" fill="white" transform="translate(0.880005 0.600098)"/>
</clipPath>
<clipPath id="clip2_114_403">
<rect width="16" height="16" fill="white" transform="translate(0.880005 0.600098)"/>
</clipPath>
</defs>
</svg>
