<svg width="17" height="17" viewBox="0 0 17 17" fill="none" xmlns="http://www.w3.org/2000/svg">
<path d="M3.16274 4.16127V13.6001C3.16274 14.7046 4.05817 15.6 5.16274 15.6H11.8357C12.9403 15.6 13.8357 14.7046 13.8357 13.6V4.16127M3.16274 4.16127H13.8357M3.16274 4.16127L2.40039 4.16477V3.72477C2.40039 3.17249 2.8481 2.72477 3.40039 2.72477H5.4498L5.65937 2.30564C5.99815 1.62807 6.69068 1.20007 7.44822 1.20007H9.5502C10.3078 1.20007 11.0003 1.62807 11.3391 2.30564L11.5486 2.72477H13.598C14.1503 2.72477 14.598 3.17249 14.598 3.72477V4.16477L13.8357 4.16127" stroke="#1D1D1D" stroke-width="1.2" stroke-linecap="round" stroke-linejoin="round"/>
<path d="M10.8801 7.20007V12.8M8.48008 7.20007V12.8M6.08008 7.20007V12.8" stroke="#1D1D1D" stroke-width="1.2" stroke-linecap="round"/>
</svg>
