<svg width="17" height="21" viewBox="0 0 17 21" fill="none" xmlns="http://www.w3.org/2000/svg">
<g clip-path="url(#clip0_114_397)">
<g clip-path="url(#clip1_114_397)">
<g clip-path="url(#clip2_114_397)">
<path d="M12.44 1.6001H4.44C2.78315 1.6001 1.44 2.94324 1.44 4.6001V12.6001C1.44 14.257 2.78315 15.6001 4.44 15.6001H12.44C14.0969 15.6001 15.44 14.257 15.44 12.6001V4.6001C15.44 2.94324 14.0969 1.6001 12.44 1.6001Z" stroke="white" stroke-width="2"/>
<path d="M11.0786 9.27619C10.9492 9.11285 10.9862 9.04018 11.0786 8.89418C11.0802 8.89251 12.1479 7.41713 12.2579 6.91678C12.3126 6.73444 12.2586 6.6001 11.9943 6.6001H11.1196C10.8969 6.6001 10.7942 6.7151 10.7392 6.84378C10.7392 6.84378 10.2939 7.90981 9.66385 8.60084C9.46051 8.80051 9.3665 8.86451 9.2555 8.86451C9.20083 8.86451 9.11583 8.80051 9.11583 8.61817V6.91644C9.11583 6.69777 9.05349 6.6001 8.86915 6.6001H7.49377C7.3541 6.6001 7.2711 6.7021 7.2711 6.79711C7.2711 7.00445 7.58611 7.05212 7.61878 7.63547V8.90118C7.61878 9.17852 7.56844 9.22952 7.45677 9.22952C7.15943 9.22952 6.43774 8.15915 6.01005 6.93411C5.92372 6.69644 5.83938 6.60043 5.61504 6.60043H4.74001C4.49034 6.60043 4.44 6.71544 4.44 6.84411C4.44 7.07145 4.73734 8.20182 5.82271 9.69521C6.54607 10.7146 7.56477 11.2669 8.49147 11.2669C9.04849 11.2669 9.1165 11.1443 9.1165 10.9333C9.1165 9.95922 9.06616 9.86721 9.34517 9.86721C9.47451 9.86721 9.69718 9.93122 10.2172 10.4229C10.8116 11.0059 10.9092 11.2669 11.2419 11.2669H12.1166C12.3659 11.2669 12.4923 11.1443 12.4196 10.9022C12.2533 10.3932 11.1292 9.3462 11.0786 9.27619Z" fill="white"/>
</g>
</g>
</g>
<defs>
<clipPath id="clip0_114_397">
<rect width="16" height="16" fill="white" transform="translate(0.440002 0.600098)"/>
</clipPath>
<clipPath id="clip1_114_397">
<rect width="16" height="16" fill="white" transform="translate(0.440002 0.600098)"/>
</clipPath>
<clipPath id="clip2_114_397">
<rect width="16" height="16" fill="white" transform="translate(0.440002 0.600098)"/>
</clipPath>
</defs>
</svg>
