<svg width="34" height="31" viewBox="0 0 34 31" fill="none" xmlns="http://www.w3.org/2000/svg">
<g clip-path="url(#clip0_114_3990)">
<g clip-path="url(#clip1_114_3990)">
<g clip-path="url(#clip2_114_3990)">
<path d="M32.9118 27.7923L18.1618 2.76196C17.775 2.10555 16.8256 2.10555 16.4388 2.76196L1.68881 27.7923C1.29598 28.4589 1.77658 29.3 2.55035 29.3H32.0503C32.8241 29.3 33.3047 28.4589 32.9118 27.7923Z" stroke="#1D1D1D" stroke-width="1.2" stroke-linecap="round" stroke-linejoin="round"/>
<path d="M17.2988 20.8176V10.9352" stroke="#1D1D1D" stroke-width="2" stroke-linecap="round" stroke-linejoin="round"/>
<path d="M17.3008 26.0889C17.8477 26.0889 18.2911 25.6464 18.2911 25.1007C18.2911 24.5549 17.8477 24.1124 17.3008 24.1124C16.7539 24.1124 16.3105 24.5549 16.3105 25.1007C16.3105 25.6464 16.7539 26.0889 17.3008 26.0889Z" stroke="#1D1D1D" stroke-width="1.2" stroke-linecap="round" stroke-linejoin="round"/>
</g>
</g>
</g>
<defs>
<clipPath id="clip0_114_3990">
<rect width="33" height="30" fill="white" transform="translate(0.800781 0.799988)"/>
</clipPath>
<clipPath id="clip1_114_3990">
<rect width="33" height="30" fill="white" transform="translate(0.800781 0.799988)"/>
</clipPath>
<clipPath id="clip2_114_3990">
<rect width="33" height="30" fill="white" transform="translate(0.800781 0.799988)"/>
</clipPath>
</defs>
</svg>
