<svg width="16" height="21" viewBox="0 0 16 21" fill="none" xmlns="http://www.w3.org/2000/svg">
<g clip-path="url(#clip0_114_391)">
<g clip-path="url(#clip1_114_391)">
<g clip-path="url(#clip2_114_391)">
<path d="M12 1.6001H4C2.34315 1.6001 1 2.94324 1 4.6001V12.6001C1 14.257 2.34315 15.6001 4 15.6001H12C13.6569 15.6001 15 14.257 15 12.6001V4.6001C15 2.94324 13.6569 1.6001 12 1.6001Z" stroke="white" stroke-width="2"/>
<path d="M7.15668 10.7284C6.82335 10.9212 6.4063 10.6807 6.4063 10.2956V6.96705C6.4063 6.58195 6.82336 6.34141 7.15669 6.53427L10.0333 8.19857C10.3661 8.39113 10.3661 8.8716 10.0333 9.06414L7.15668 10.7284Z" fill="white"/>
</g>
</g>
</g>
<defs>
<clipPath id="clip0_114_391">
<rect width="16" height="16" fill="white" transform="translate(0 0.600098)"/>
</clipPath>
<clipPath id="clip1_114_391">
<rect width="16" height="16" fill="white" transform="translate(0 0.600098)"/>
</clipPath>
<clipPath id="clip2_114_391">
<rect width="16" height="16" fill="white" transform="translate(0 0.600098)"/>
</clipPath>
</defs>
</svg>
